<svg width="179" height="56" viewBox="0 0 179 56" fill="none" xmlns="http://www.w3.org/2000/svg">
<rect width="179" height="56" rx="4" fill="#69B99D"/>
<path d="M48.6 29.5C48.4 29.4 47.1 28.8 46.9 28.7C46.7 28.6 46.5 28.6 46.3 28.8C46.1 29 45.7 29.6 45.5 29.8C45.4 30 45.2 30 45 29.9C44.3 29.6 43.6 29.2 43 28.7C42.5 28.2 42 27.6 41.6 27C41.5 26.8 41.6 26.6 41.7 26.5C41.8 26.4 41.9 26.2 42.1 26.1C42.2 26 42.3 25.8 42.3 25.7C42.4 25.6 42.4 25.4 42.3 25.3C42.2 25.2 41.7 24 41.5 23.5C41.4 22.8 41.2 22.8 41 22.8C40.9 22.8 40.7 22.8 40.5 22.8C40.3 22.8 40 23 39.9 23.1C39.3 23.7 39 24.4 39 25.2C39.1 26.1 39.4 27 40 27.8C41.1 29.4 42.5 30.7 44.2 31.5C44.7 31.7 45.1 31.9 45.6 32C46.1 32.2 46.6 32.2 47.2 32.1C47.9 32 48.5 31.5 48.9 30.9C49.1 30.5 49.1 30.1 49 29.7C49 29.7 48.8 29.6 48.6 29.5ZM51.1 20.4C47.2 16.5 40.9 16.5 37 20.4C33.8 23.6 33.2 28.5 35.4 32.4L34 37.5L39.3 36.1C40.8 36.9 42.4 37.3 44 37.3C49.5 37.3 53.9 32.9 53.9 27.4C54 24.8 52.9 22.3 51.1 20.4ZM48.4 34.4C47.1 35.2 45.6 35.7 44 35.7C42.5 35.7 41.1 35.3 39.8 34.6L39.5 34.4L36.4 35.2L37.2 32.2L37 31.9C34.6 27.9 35.8 22.9 39.7 20.4C43.6 17.9 48.6 19.2 51 23C53.4 26.9 52.3 32 48.4 34.4Z" fill="#F9F9F9"/>
<path d="M72.1358 33.192C71.0265 33.192 70.0665 32.952 69.2558 32.472C68.4558 31.9813 67.8371 31.304 67.3998 30.44C66.9625 29.5653 66.7438 28.5573 66.7438 27.416C66.7438 26.264 66.9625 25.256 67.3998 24.392C67.8371 23.5173 68.4558 22.8347 69.2558 22.344C70.0665 21.8533 71.0265 21.608 72.1358 21.608C73.4478 21.608 74.5198 21.928 75.3518 22.568C76.1838 23.208 76.7118 24.104 76.9358 25.256H75.0478C74.8985 24.6053 74.5785 24.088 74.0878 23.704C73.5971 23.32 72.9411 23.128 72.1198 23.128C70.9998 23.128 70.1145 23.512 69.4638 24.28C68.8131 25.0373 68.4878 26.0827 68.4878 27.416C68.4878 28.7387 68.8131 29.7787 69.4638 30.536C70.1145 31.2933 70.9998 31.672 72.1198 31.672C72.9411 31.672 73.5971 31.4907 74.0878 31.128C74.5785 30.7653 74.8985 30.2693 75.0478 29.64H76.9358C76.7118 30.7493 76.1838 31.6187 75.3518 32.248C74.5198 32.8773 73.4478 33.192 72.1358 33.192ZM82.4481 33.192C81.6907 33.192 81.0081 33.0213 80.4001 32.68C79.8027 32.328 79.3281 31.8427 78.9761 31.224C78.6241 30.5947 78.4481 29.864 78.4481 29.032C78.4481 28.2 78.6241 27.4747 78.9761 26.856C79.3387 26.2267 79.8241 25.7413 80.4321 25.4C81.0401 25.048 81.7174 24.872 82.4641 24.872C83.2214 24.872 83.8987 25.048 84.4961 25.4C85.1041 25.7413 85.5841 26.2267 85.9361 26.856C86.2987 27.4747 86.4801 28.2 86.4801 29.032C86.4801 29.864 86.2987 30.5947 85.9361 31.224C85.5841 31.8427 85.1041 32.328 84.4961 32.68C83.8881 33.0213 83.2054 33.192 82.4481 33.192ZM82.4481 31.736C82.8534 31.736 83.2267 31.6347 83.5681 31.432C83.9201 31.2293 84.2027 30.9307 84.4161 30.536C84.6294 30.1307 84.7361 29.6293 84.7361 29.032C84.7361 28.4347 84.6294 27.9387 84.4161 27.544C84.2134 27.1387 83.9361 26.8347 83.5841 26.632C83.2427 26.4293 82.8694 26.328 82.4641 26.328C82.0587 26.328 81.6801 26.4293 81.3281 26.632C80.9867 26.8347 80.7094 27.1387 80.4961 27.544C80.2827 27.9387 80.1761 28.4347 80.1761 29.032C80.1761 29.6293 80.2827 30.1307 80.4961 30.536C80.7094 30.9307 80.9867 31.2293 81.3281 31.432C81.6694 31.6347 82.0427 31.736 82.4481 31.736ZM88.3142 33V25.064H89.8182L89.9622 26.184C90.2182 25.7787 90.5542 25.4587 90.9702 25.224C91.3969 24.9893 91.8875 24.872 92.4422 24.872C93.7009 24.872 94.5755 25.368 95.0662 26.36C95.3542 25.9013 95.7382 25.5387 96.2182 25.272C96.7089 25.0053 97.2369 24.872 97.8022 24.872C98.7942 24.872 99.5729 25.1707 100.138 25.768C100.704 26.3653 100.986 27.256 100.986 28.44V33H99.2902V28.616C99.2902 27.08 98.7035 26.312 97.5302 26.312C96.9329 26.312 96.4422 26.536 96.0582 26.984C95.6849 27.432 95.4982 28.072 95.4982 28.904V33H93.8022V28.616C93.8022 27.08 93.2102 26.312 92.0262 26.312C91.4395 26.312 90.9542 26.536 90.5702 26.984C90.1969 27.432 90.0102 28.072 90.0102 28.904V33H88.3142ZM106.682 33.192C105.904 33.192 105.21 33.0213 104.602 32.68C104.005 32.328 103.536 31.8427 103.194 31.224C102.853 30.6053 102.682 29.8853 102.682 29.064C102.682 28.232 102.848 27.5013 103.178 26.872C103.52 26.2427 103.989 25.752 104.586 25.4C105.194 25.048 105.898 24.872 106.698 24.872C107.477 24.872 108.154 25.048 108.73 25.4C109.306 25.7413 109.754 26.2 110.074 26.776C110.394 27.352 110.554 27.9867 110.554 28.68C110.554 28.7867 110.549 28.904 110.538 29.032C110.538 29.1493 110.533 29.2827 110.522 29.432H104.346C104.4 30.2 104.65 30.7867 105.098 31.192C105.557 31.5867 106.085 31.784 106.682 31.784C107.162 31.784 107.562 31.6773 107.882 31.464C108.213 31.24 108.458 30.9413 108.618 30.568H110.314C110.101 31.3147 109.674 31.9387 109.034 32.44C108.405 32.9413 107.621 33.192 106.682 33.192ZM106.682 26.264C106.117 26.264 105.616 26.4347 105.178 26.776C104.741 27.1067 104.474 27.608 104.378 28.28H108.858C108.826 27.6613 108.608 27.1707 108.202 26.808C107.797 26.4453 107.29 26.264 106.682 26.264ZM116.074 33.192C115.296 33.192 114.597 33.016 113.978 32.664C113.37 32.312 112.89 31.8267 112.538 31.208C112.197 30.5787 112.026 29.8533 112.026 29.032C112.026 28.2107 112.197 27.4907 112.538 26.872C112.89 26.2427 113.37 25.752 113.978 25.4C114.597 25.048 115.296 24.872 116.074 24.872C117.056 24.872 117.877 25.128 118.538 25.64C119.21 26.152 119.642 26.8453 119.834 27.72H118.058C117.952 27.2827 117.717 26.9413 117.354 26.696C116.992 26.4507 116.565 26.328 116.074 26.328C115.658 26.328 115.274 26.4347 114.922 26.648C114.57 26.8507 114.288 27.1547 114.074 27.56C113.861 27.9547 113.754 28.4453 113.754 29.032C113.754 29.6187 113.861 30.1147 114.074 30.52C114.288 30.9147 114.57 31.2187 114.922 31.432C115.274 31.6453 115.658 31.752 116.074 31.752C116.565 31.752 116.992 31.6293 117.354 31.384C117.717 31.1387 117.952 30.792 118.058 30.344H119.834C119.653 31.1973 119.226 31.8853 118.554 32.408C117.882 32.9307 117.056 33.192 116.074 33.192ZM125.386 33.192C124.607 33.192 123.914 33.0213 123.306 32.68C122.708 32.328 122.239 31.8427 121.898 31.224C121.556 30.6053 121.386 29.8853 121.386 29.064C121.386 28.232 121.551 27.5013 121.882 26.872C122.223 26.2427 122.692 25.752 123.29 25.4C123.898 25.048 124.602 24.872 125.402 24.872C126.18 24.872 126.858 25.048 127.434 25.4C128.01 25.7413 128.458 26.2 128.778 26.776C129.098 27.352 129.258 27.9867 129.258 28.68C129.258 28.7867 129.252 28.904 129.242 29.032C129.242 29.1493 129.236 29.2827 129.226 29.432H123.05C123.103 30.2 123.354 30.7867 123.802 31.192C124.26 31.5867 124.788 31.784 125.386 31.784C125.866 31.784 126.266 31.6773 126.586 31.464C126.916 31.24 127.162 30.9413 127.322 30.568H129.018C128.804 31.3147 128.378 31.9387 127.738 32.44C127.108 32.9413 126.324 33.192 125.386 33.192ZM125.386 26.264C124.82 26.264 124.319 26.4347 123.882 26.776C123.444 27.1067 123.178 27.608 123.082 28.28H127.562C127.53 27.6613 127.311 27.1707 126.906 26.808C126.5 26.4453 125.994 26.264 125.386 26.264ZM136.057 23.56C135.737 23.56 135.47 23.464 135.257 23.272C135.054 23.0693 134.953 22.8187 134.953 22.52C134.953 22.2213 135.054 21.976 135.257 21.784C135.47 21.5813 135.737 21.48 136.057 21.48C136.377 21.48 136.638 21.5813 136.841 21.784C137.054 21.976 137.161 22.2213 137.161 22.52C137.161 22.8187 137.054 23.0693 136.841 23.272C136.638 23.464 136.377 23.56 136.057 23.56ZM133.529 36.52V35.08H134.153C134.526 35.08 134.793 35 134.953 34.84C135.113 34.6907 135.193 34.4347 135.193 34.072V25.064H136.889V34.088C136.889 34.952 136.67 35.5707 136.233 35.944C135.795 36.328 135.187 36.52 134.409 36.52H133.529ZM141.815 33.192C141.143 33.192 140.588 33.08 140.151 32.856C139.713 32.632 139.388 32.3387 139.175 31.976C138.961 31.6027 138.855 31.1973 138.855 30.76C138.855 29.992 139.153 29.384 139.751 28.936C140.348 28.488 141.201 28.264 142.311 28.264H144.391V28.12C144.391 27.5013 144.22 27.0373 143.879 26.728C143.548 26.4187 143.116 26.264 142.583 26.264C142.113 26.264 141.703 26.3813 141.351 26.616C141.009 26.84 140.801 27.176 140.727 27.624H139.031C139.084 27.048 139.276 26.5573 139.607 26.152C139.948 25.736 140.375 25.4213 140.887 25.208C141.409 24.984 141.98 24.872 142.599 24.872C143.708 24.872 144.567 25.1653 145.175 25.752C145.783 26.328 146.087 27.1173 146.087 28.12V33H144.615L144.471 31.64C144.247 32.0773 143.921 32.4453 143.495 32.744C143.068 33.0427 142.508 33.192 141.815 33.192ZM142.151 31.816C142.609 31.816 142.993 31.7093 143.303 31.496C143.623 31.272 143.868 30.9787 144.039 30.616C144.22 30.2533 144.332 29.8533 144.375 29.416H142.487C141.815 29.416 141.335 29.5333 141.047 29.768C140.769 30.0027 140.631 30.296 140.631 30.648C140.631 31.0107 140.764 31.2987 141.031 31.512C141.308 31.7147 141.681 31.816 142.151 31.816ZM142.087 24.408V23.192L145.575 21.208V22.616L142.087 24.408Z" fill="#F9F9F9"/>
</svg>
